<svg width="187" height="158" viewBox="0 0 187 158" fill="none" xmlns="http://www.w3.org/2000/svg">
<path d="M166.964 19.6899H20.0357C8.97032 19.6899 0 28.5055 0 39.3799V137.83C0 148.705 8.97032 157.52 20.0357 157.52H166.964C178.03 157.52 187 148.705 187 137.83V39.3799C187 28.5055 178.03 19.6899 166.964 19.6899Z" fill="#88BC31"/>
<path d="M187 39.3799V52.5066H6.67857H0V39.3799C0 34.1578 2.1109 29.1496 5.86833 25.457C9.62576 21.7644 14.7219 19.6899 20.0357 19.6899H166.964C172.278 19.6899 177.374 21.7644 181.132 25.457C184.889 29.1496 187 34.1578 187 39.3799Z" fill="#385703"/>
<path d="M60.1072 32.8167C58.3361 32.8167 56.637 32.1252 55.3848 30.8943C54.1326 29.6634 53.4286 27.9941 53.4286 26.2533V13.1267H40.0715V26.2533C40.0715 27.9941 39.3678 29.6634 38.1154 30.8943C36.8629 32.1252 35.1642 32.8167 33.3929 32.8167C31.6216 32.8167 29.9229 32.1252 28.6704 30.8943C27.418 29.6634 26.7144 27.9941 26.7144 26.2533V6.56333C26.7144 4.82261 27.418 3.15322 28.6704 1.92233C29.9229 0.691513 31.6216 0 33.3929 0H60.1072C61.8784 0 63.5774 0.691513 64.8296 1.92233C66.0819 3.15322 66.7858 4.82261 66.7858 6.56333V26.2533C66.7858 27.9941 66.0819 29.6634 64.8296 30.8943C63.5774 32.1252 61.8784 32.8167 60.1072 32.8167Z" fill="#283593"/>
<path d="M153.607 32.8167C151.836 32.8167 150.137 32.1252 148.885 30.8943C147.633 29.6634 146.929 27.9941 146.929 26.2533V13.1267H133.571V26.2533C133.571 27.9941 132.868 29.6634 131.615 30.8943C130.363 32.1252 128.664 32.8167 126.893 32.8167C125.122 32.8167 123.423 32.1252 122.171 30.8943C120.918 29.6634 120.214 27.9941 120.214 26.2533V6.56333C120.214 4.82261 120.918 3.15322 122.171 1.92233C123.423 0.691513 125.122 0 126.893 0H153.607C155.378 0 157.077 0.691513 158.33 1.92233C159.582 3.15322 160.286 4.82261 160.286 6.56333V26.2533C160.286 27.9941 159.582 29.6634 158.33 30.8943C157.077 32.1252 155.378 32.8167 153.607 32.8167Z" fill="#385703"/>
<path d="M46.75 111.577H40.0714C36.383 111.577 33.3928 114.515 33.3928 118.14V124.703C33.3928 128.328 36.383 131.267 40.0714 131.267H46.75C50.4384 131.267 53.4285 128.328 53.4285 124.703V118.14C53.4285 114.515 50.4384 111.577 46.75 111.577Z" fill="#0D47A1"/>
<path d="M80.1428 78.7599H73.4642C69.7756 78.7599 66.7856 81.6983 66.7856 85.3232V91.8866C66.7856 95.5115 69.7756 98.4499 73.4642 98.4499H80.1428C83.8314 98.4499 86.8214 95.5115 86.8214 91.8866V85.3232C86.8214 81.6983 83.8314 78.7599 80.1428 78.7599Z" fill="#0D47A1"/>
<path d="M80.1428 111.577H73.4642C69.7756 111.577 66.7856 114.515 66.7856 118.14V124.703C66.7856 128.328 69.7756 131.267 73.4642 131.267H80.1428C83.8314 131.267 86.8214 128.328 86.8214 124.703V118.14C86.8214 114.515 83.8314 111.577 80.1428 111.577Z" fill="#0D47A1"/>
<path d="M113.536 78.7599H106.857C103.168 78.7599 100.178 81.6983 100.178 85.3232V91.8866C100.178 95.5115 103.168 98.4499 106.857 98.4499H113.536C117.224 98.4499 120.214 95.5115 120.214 91.8866V85.3232C120.214 81.6983 117.224 78.7599 113.536 78.7599Z" fill="#385703"/>
<path d="M113.536 111.577H106.857C103.168 111.577 100.178 114.515 100.178 118.14V124.703C100.178 128.328 103.168 131.267 106.857 131.267H113.536C117.224 131.267 120.214 128.328 120.214 124.703V118.14C120.214 114.515 117.224 111.577 113.536 111.577Z" fill="#385703"/>
<path d="M146.929 78.7599H140.25C136.562 78.7599 133.572 81.6983 133.572 85.3232V91.8866C133.572 95.5115 136.562 98.4499 140.25 98.4499H146.929C150.617 98.4499 153.607 95.5115 153.607 91.8866V85.3232C153.607 81.6983 150.617 78.7599 146.929 78.7599Z" fill="#FFBE00"/>
<path d="M146.929 111.577H140.25C136.562 111.577 133.572 114.515 133.572 118.14V124.703C133.572 128.328 136.562 131.267 140.25 131.267H146.929C150.617 131.267 153.607 128.328 153.607 124.703V118.14C153.607 114.515 150.617 111.577 146.929 111.577Z" fill="#385703"/>
<path d="M20.0357 19.6899C14.7219 19.6899 9.62576 21.7644 5.86833 25.457C2.1109 29.1496 0 34.1578 0 39.3799V137.83C0 143.052 2.1109 148.06 5.86833 151.753C9.62576 155.445 14.7219 157.52 20.0357 157.52H93.5V19.6899H20.0357Z" fill="#9EE02F"/>
<path d="M20.0357 19.6899C14.7219 19.6899 9.62576 21.7644 5.86833 25.457C2.1109 29.1496 0 34.1578 0 39.3799V52.5066H6.67857H93.5V19.6899H20.0357Z" fill="#587D18"/>
<path d="M60.1072 32.8167C58.3361 32.8167 56.637 32.1252 55.3848 30.8943C54.1326 29.6634 53.4286 27.9941 53.4286 26.2533V13.1267H40.0715V26.2533C40.0715 27.9941 39.3678 29.6634 38.1154 30.8943C36.8629 32.1252 35.1642 32.8167 33.3929 32.8167C31.6216 32.8167 29.9229 32.1252 28.6704 30.8943C27.418 29.6634 26.7144 27.9941 26.7144 26.2533V6.56333C26.7144 4.82261 27.418 3.15322 28.6704 1.92233C29.9229 0.691513 31.6216 0 33.3929 0H60.1072C61.8784 0 63.5774 0.691513 64.8296 1.92233C66.0819 3.15322 66.7858 4.82261 66.7858 6.56333V26.2533C66.7858 27.9941 66.0819 29.6634 64.8296 30.8943C63.5774 32.1252 61.8784 32.8167 60.1072 32.8167Z" fill="#587D18"/>
<path d="M46.75 111.577H40.0714C36.383 111.577 33.3928 114.515 33.3928 118.14V124.703C33.3928 128.328 36.383 131.267 40.0714 131.267H46.75C50.4384 131.267 53.4285 128.328 53.4285 124.703V118.14C53.4285 114.515 50.4384 111.577 46.75 111.577Z" fill="#FFF200"/>
<path d="M80.1428 78.7599H73.4642C69.7756 78.7599 66.7856 81.6983 66.7856 85.3232V91.8866C66.7856 95.5115 69.7756 98.4499 73.4642 98.4499H80.1428C83.8314 98.4499 86.8214 95.5115 86.8214 91.8866V85.3232C86.8214 81.6983 83.8314 78.7599 80.1428 78.7599Z" fill="#587D18"/>
<path d="M80.1428 111.577H73.4642C69.7756 111.577 66.7856 114.515 66.7856 118.14V124.703C66.7856 128.328 69.7756 131.267 73.4642 131.267H80.1428C83.8314 131.267 86.8214 128.328 86.8214 124.703V118.14C86.8214 114.515 83.8314 111.577 80.1428 111.577Z" fill="#587D18"/>
</svg>
