<svg width="160" height="158" viewBox="0 0 160 158" fill="none" xmlns="http://www.w3.org/2000/svg">
<path d="M156.02 11.5441L11.7258 153.602C9.79348 155.504 6.62254 155.504 4.69026 153.602L3.9801 152.903C2.04781 150.984 2.04781 147.878 3.9801 145.976L148.274 3.91845C150.206 2.01611 153.377 2.01611 155.31 3.91845L156.02 4.6176C157.952 6.5362 157.952 9.64173 156.02 11.5441Z" fill="#88BC31"/>
<path d="M8.20826 157.504C6.11082 157.504 4.01338 156.723 2.4114 155.146C-0.792568 151.992 -0.792568 146.87 2.4114 143.732L145.979 2.37379C149.183 -0.78052 154.385 -0.78052 157.572 2.37379C159.125 3.90216 159.967 5.91832 159.967 8.08081C159.967 10.2433 159.108 12.2757 157.572 13.7878L14.0216 155.146C12.4197 156.723 10.3222 157.504 8.20826 157.504ZM151.792 5.38176C151.082 5.38176 150.388 5.64191 149.843 6.17847L6.27597 147.521C5.20248 148.578 5.20248 150.285 6.27597 151.342C7.34946 152.398 9.08357 152.398 10.1571 151.342L153.724 9.99941C154.236 9.49537 154.517 8.81248 154.517 8.08081C154.517 7.34914 154.236 6.68251 153.724 6.16221C153.196 5.64191 152.486 5.38176 151.792 5.38176Z" fill="#88BC31"/>
<path d="M62.7579 142.155L53.8562 150.919C52.4193 152.333 50.1072 152.333 48.6869 150.919L6.70506 109.588C5.26823 108.173 5.26823 105.897 6.70506 104.498L15.6068 95.7346C17.0436 94.3201 19.3558 94.3201 20.7761 95.7346L62.7579 137.066C64.1947 138.464 64.1947 140.757 62.7579 142.155Z" fill="#587D18"/>
<path d="M51.2634 154.513C49.5293 154.513 47.7952 153.862 46.4905 152.561L5.03713 111.751C3.76545 110.499 3.0553 108.824 3.0553 107.052C3.0553 105.279 3.76545 103.605 5.03713 102.353L13.4104 94.1092C16.0528 91.5077 20.3303 91.5077 22.9727 94.1092L64.4261 134.92C67.0685 137.522 67.0685 141.733 64.4261 144.334L56.0528 152.561C54.7316 153.862 52.9975 154.513 51.2634 154.513ZM18.1998 97.5237C17.8695 97.5237 17.5392 97.6537 17.275 97.8976L8.90171 106.141C8.5714 106.466 8.52185 106.856 8.52185 107.052C8.52185 107.247 8.5714 107.637 8.90171 107.962L50.355 148.773C50.867 149.277 51.6928 149.277 52.1882 148.773L60.5615 140.53C61.0735 140.025 61.0735 139.213 60.5615 138.725L19.1081 97.9139C18.8604 97.6375 18.5301 97.5237 18.1998 97.5237Z" fill="#587D18"/>
<path d="M40.9247 148.383L35.293 153.927C33.8562 155.342 31.5441 155.342 30.1238 153.927L3.64977 127.864C2.21294 126.449 2.21294 124.173 3.64977 122.775L9.28148 117.23C10.7183 115.816 13.0304 115.816 14.4508 117.23L40.9247 143.294C42.3616 144.692 42.3616 146.968 40.9247 148.383Z" fill="#587D18"/>
<path d="M32.7168 157.52C30.9166 157.52 29.2155 156.821 27.9438 155.569L1.98183 130.025C-0.660611 127.424 -0.660611 123.213 1.98183 120.611L7.08505 115.587C9.7275 112.986 14.005 112.986 16.6474 115.587L42.5929 141.131C43.8646 142.383 44.5747 144.057 44.5747 145.83C44.5747 147.602 43.8646 149.277 42.5929 150.528L37.4897 155.553C36.218 156.821 34.5169 157.52 32.7168 157.52ZM11.8745 119.002C11.5442 119.002 11.2139 119.132 10.9496 119.376L5.84641 124.416C5.33443 124.92 5.33443 125.733 5.84641 126.221L31.7919 151.764C32.3039 152.268 33.1296 152.268 33.6251 151.764L38.7283 146.74C39.0586 146.415 39.1082 146.025 39.1082 145.83C39.1082 145.634 39.0586 145.244 38.7283 144.919L12.7828 119.376C12.5351 119.132 12.2048 119.002 11.8745 119.002Z" fill="#587D18"/>
<path d="M144.393 61.7854L153.295 53.0217C154.732 51.6071 154.732 49.3308 153.295 47.9325L111.313 6.60133C109.876 5.18677 107.564 5.18677 106.144 6.60133L97.2421 15.3651C95.8052 16.7797 95.8052 19.056 97.2421 20.4543L139.224 61.7854C140.644 63.1837 142.973 63.1837 144.393 61.7854Z" fill="#587D18"/>
<path d="M141.8 65.3788C140.066 65.3788 138.332 64.7284 137.027 63.4277L95.5738 22.6168C92.9313 20.0153 92.9313 15.8041 95.5738 13.2026L103.947 4.95917C106.589 2.35768 110.867 2.35768 113.509 4.95917L154.963 45.7701C157.605 48.3715 157.605 52.5827 154.963 55.1842L146.589 63.4277C145.268 64.7284 143.534 65.3788 141.8 65.3788ZM108.736 8.38989C108.406 8.38989 108.076 8.51996 107.812 8.76385L99.4383 17.0073C98.9264 17.5114 98.9264 18.3243 99.4383 18.8121L140.892 59.623C141.404 60.127 142.229 60.127 142.725 59.623L151.098 51.3795C151.61 50.8755 151.61 50.0625 151.098 49.5747L109.645 8.76385C109.397 8.50371 109.067 8.38989 108.736 8.38989Z" fill="#587D18"/>
<path d="M150.718 40.2907L156.35 34.7462C157.787 33.3317 157.787 31.0554 156.35 29.6571L129.876 3.59339C128.439 2.17883 126.127 2.17883 124.707 3.59339L119.075 9.13782C117.638 10.5524 117.638 12.8287 119.075 14.227L145.549 40.2907C146.969 41.7052 149.282 41.7052 150.718 40.2907Z" fill="#587D18"/>
<path d="M148.126 43.8839C146.325 43.8839 144.624 43.1847 143.353 41.9328L117.407 16.3894C114.765 13.7879 114.765 9.57674 117.407 6.97525L122.51 1.95112C125.153 -0.650373 129.43 -0.650373 132.073 1.95112L158.018 27.4945C159.29 28.7465 160 30.4212 160 32.1934C160 33.9657 159.29 35.6404 158.018 36.8924L152.915 41.9165C151.627 43.1847 149.942 43.8839 148.126 43.8839ZM127.283 5.38183C126.953 5.38183 126.623 5.51191 126.358 5.7558L121.255 10.7799C120.743 11.284 120.743 12.0969 121.255 12.5847L147.217 38.1444C147.729 38.6484 148.555 38.6484 149.05 38.1444L154.154 33.104C154.666 32.5999 154.666 31.787 154.154 31.2992L128.208 5.7558C127.96 5.49565 127.63 5.38183 127.283 5.38183Z" fill="#587D18"/>
</svg>
