<svg width="200" height="85" viewBox="0 0 200 85" fill="none" xmlns="http://www.w3.org/2000/svg">
<path d="M12.6752 29.2978H16.184C17.2805 29.2978 18.2309 28.9059 19.0349 28.1223C19.8537 27.3235 20.263 26.2988 20.263 25.0478C20.263 24.234 20.0072 23.5934 19.4954 23.1263C18.9837 22.6592 18.3038 22.4255 17.4559 22.4255H13.9472L12.6752 29.2978ZM20.7893 47.2473C19.3712 47.2473 18.3624 46.5993 17.763 45.3032L13.5086 36.351H11.3156L10.0437 43.2234C9.83898 44.3537 9.28343 45.3108 8.377 46.0944C7.47056 46.863 6.47642 47.2473 5.39454 47.2473C4.42963 47.2473 3.64747 46.9458 3.04805 46.3431C2.44863 45.7403 2.14893 44.9717 2.14893 44.0372C2.14893 43.7357 2.17817 43.4645 2.23664 43.2234L6.75419 19.2606C6.9881 18.0399 7.4998 17.0904 8.28928 16.4122C9.09336 15.719 10.0875 15.3723 11.2717 15.3723H19.4296C20.994 15.3723 22.4266 15.6737 23.7279 16.2766C25.0291 16.8643 26.0963 17.7987 26.9296 19.0798C27.7775 20.3457 28.2016 21.8528 28.2016 23.601C28.2016 24.9424 28.0116 26.2234 27.6314 27.4441C27.2512 28.6499 26.7468 29.7048 26.1182 30.609C25.4896 31.5133 24.8024 32.2969 24.0568 32.9601C23.3258 33.6233 22.5582 34.1658 21.7542 34.5877L25.0875 40.6915C25.3652 41.2038 25.5042 41.7766 25.5042 42.4095C25.5042 43.7057 25.0217 44.836 24.0568 45.8005C23.1065 46.765 22.0173 47.2473 20.7893 47.2473ZM40.6628 27.2633H48.4259C49.2447 27.2633 49.9172 27.527 50.4435 28.0545C50.9845 28.582 51.2549 29.2602 51.2549 30.0891C51.2549 31.2044 50.831 32.1915 49.983 33.0505C49.1351 33.8945 48.1775 34.3165 47.1101 34.3165H39.347L38.2944 39.9681H47.8558C48.6891 39.9681 49.3689 40.2393 49.8952 40.7819C50.4216 41.3094 50.6847 41.995 50.6847 42.8391C50.6847 43.9392 50.2535 44.9113 49.3909 45.7553C48.543 46.5993 47.5926 47.0212 46.54 47.0212H32.9435C31.9347 47.0212 31.1526 46.7726 30.597 46.2752C30.0561 45.7629 29.7856 45.0395 29.7856 44.105C29.7856 43.7583 29.8149 43.4344 29.8733 43.133L34.3909 19.2606C34.6249 18.0399 35.1365 17.0904 35.9259 16.4122C36.7301 15.719 37.7242 15.3723 38.9084 15.3723H52.5049C53.3237 15.3723 53.9889 15.6436 54.5005 16.1861C55.0268 16.7136 55.29 17.3767 55.29 18.1755C55.29 19.3208 54.8661 20.3155 54.018 21.1595C53.1701 22.0036 52.2126 22.4255 51.1452 22.4255H41.5838L40.6628 27.2633ZM59.8391 47.6994C58.7865 47.6994 57.8947 47.3227 57.1637 46.5691C56.4326 45.8155 56.0672 44.9113 56.0672 43.8564C56.0672 42.8015 56.4326 41.882 57.1637 41.0984C57.8947 40.3148 58.7865 39.9228 59.8391 39.9228C60.8917 39.9228 61.7835 40.3148 62.5145 41.0984C63.2456 41.882 63.611 42.8015 63.611 43.8564C63.611 44.9113 63.2456 45.8155 62.5145 46.5691C61.7835 47.3227 60.8917 47.6994 59.8391 47.6994Z" fill="#88BC31"/>
<path d="M68.9535 40.4203C69.1582 39.3954 69.6626 38.5289 70.4666 37.8205C71.2854 37.1121 72.1845 36.758 73.164 36.758C74.2459 36.758 75.1377 37.2404 75.8395 38.2048C76.4096 38.9885 77.0968 39.5988 77.9009 40.036C78.7049 40.4731 79.5091 40.6915 80.3131 40.6915C81.5558 40.6915 82.5719 40.375 83.3614 39.7421C84.1509 39.1091 84.5456 38.2576 84.5456 37.1875C84.5456 36.5696 84.3189 36.0648 83.8658 35.6729C83.4126 35.281 82.6961 34.9645 81.7166 34.7235L79.4359 34.1809C76.9359 33.5931 75.05 32.6889 73.778 31.4681C72.5207 30.2474 71.8921 28.6423 71.8921 26.653C71.8921 25.1459 72.1917 23.6839 72.7912 22.2673C73.3907 20.8507 74.2312 19.5922 75.3131 18.4921C76.4096 17.3768 77.7912 16.4876 79.4579 15.8245C81.1245 15.1614 82.9447 14.8298 84.9184 14.8298C86.7898 14.8298 88.5003 15.1991 90.05 15.9375C91.5996 16.676 92.7693 17.6632 93.5587 18.899C93.8951 19.4415 94.0631 20.0143 94.0631 20.6171C94.0631 21.7324 93.6245 22.7345 92.7473 23.6237C91.8849 24.513 90.9272 24.9575 89.8745 24.9575C88.6758 24.9575 87.7838 24.5204 87.1991 23.6463C86.3219 22.3502 85.1816 21.7022 83.7781 21.7022C82.6084 21.7022 81.6728 21.9961 80.971 22.5838C80.2693 23.1716 79.9184 23.9402 79.9184 24.8897C79.9184 26.1556 80.9856 27.0373 83.1202 27.5346L85.4886 28.0772C87.8277 28.6197 89.5895 29.4864 90.7737 30.6769C91.9579 31.8675 92.55 33.4425 92.55 35.4016C92.55 39.0187 91.278 41.9499 88.7342 44.1955C86.2049 46.4412 82.9593 47.5639 78.9973 47.5639C76.9214 47.5639 74.9768 47.1344 73.164 46.2753C71.3658 45.4013 70.0645 44.2331 69.2605 42.7713C69.0412 42.3794 68.917 41.8295 68.8877 41.1211C68.8877 40.88 68.9096 40.6463 68.9535 40.4203ZM112.838 22.4256L108.934 43.2235C108.73 44.3538 108.174 45.3108 107.268 46.0945C106.361 46.8631 105.367 47.2474 104.285 47.2474C103.32 47.2474 102.538 46.9459 101.939 46.3431C101.339 45.7404 101.04 44.9717 101.04 44.0373C101.04 43.7358 101.069 43.4645 101.127 43.2235L105.031 22.4256H100.601C99.7823 22.4256 99.1024 22.1543 98.5616 21.6117C98.0352 21.0692 97.7721 20.3834 97.7721 19.5546C97.7721 18.4393 98.2033 17.4672 99.0659 16.6383C99.9431 15.7944 100.908 15.3724 101.961 15.3724H118.627C119.446 15.3724 120.111 15.6361 120.623 16.1636C121.149 16.6911 121.412 17.3617 121.412 18.1756C121.412 19.2909 120.988 20.278 120.141 21.137C119.292 21.9961 118.335 22.4256 117.268 22.4256H112.838ZM131.153 16.1862C132.235 15.493 133.383 15.1463 134.596 15.1463C135.81 15.1463 136.811 15.493 137.601 16.1862C138.405 16.8644 138.895 17.7687 139.07 18.899L142.623 41.5958C142.666 41.8369 142.688 42.1007 142.688 42.387C142.688 43.6982 142.213 44.8361 141.263 45.8006C140.313 46.7651 139.216 47.2474 137.973 47.2474C137.052 47.2474 136.3 46.9761 135.715 46.4336C135.145 45.891 134.801 45.1676 134.684 44.2633L134.377 41.7314H124.684L123.456 44.2633C123.017 45.1676 122.418 45.891 121.658 46.4336C120.898 46.9761 120.05 47.2474 119.114 47.2474C118.149 47.2474 117.367 46.9459 116.767 46.3431C116.168 45.7404 115.868 44.9717 115.868 44.0373C115.868 43.2989 116.102 42.485 116.57 41.5958L128.631 18.899C129.231 17.7837 130.072 16.8795 131.153 16.1862ZM132.491 26.0878L127.886 35.3564H133.588L132.491 26.0878ZM157.037 29.2979H160.546C161.642 29.2979 162.593 28.906 163.397 28.1224C164.215 27.3236 164.625 26.2989 164.625 25.0479C164.625 24.2341 164.369 23.5935 163.857 23.1264C163.346 22.6592 162.666 22.4256 161.818 22.4256H158.309L157.037 29.2979ZM165.151 47.2474C163.733 47.2474 162.724 46.5994 162.125 45.3032L157.87 36.3511H155.677L154.405 43.2235C154.201 44.3538 153.645 45.3108 152.739 46.0945C151.832 46.8631 150.838 47.2474 149.756 47.2474C148.791 47.2474 148.009 46.9459 147.41 46.3431C146.811 45.7404 146.511 44.9717 146.511 44.0373C146.511 43.7358 146.54 43.4645 146.598 43.2235L151.116 19.2607C151.35 18.0399 151.862 17.0905 152.651 16.4123C153.455 15.719 154.449 15.3724 155.633 15.3724H163.791C165.356 15.3724 166.789 15.6738 168.09 16.2766C169.391 16.8644 170.458 17.7988 171.291 19.0798C172.139 20.3458 172.563 21.8528 172.563 23.6011C172.563 24.9425 172.373 26.2235 171.993 27.4442C171.613 28.6499 171.109 29.7048 170.48 30.6091C169.851 31.5133 169.164 32.297 168.419 32.9602C167.688 33.6233 166.92 34.1659 166.116 34.5878L169.449 40.6915C169.727 41.2039 169.866 41.7766 169.866 42.4096C169.866 43.7058 169.383 44.8361 168.419 45.8006C167.468 46.7651 166.379 47.2474 165.151 47.2474ZM191.165 22.4256L187.261 43.2235C187.056 44.3538 186.502 45.3108 185.595 46.0945C184.688 46.8631 183.695 47.2474 182.612 47.2474C181.647 47.2474 180.865 46.9459 180.267 46.3431C179.667 45.7404 179.367 44.9717 179.367 44.0373C179.367 43.7358 179.396 43.4645 179.454 43.2235L183.358 22.4256H178.928C178.109 22.4256 177.43 22.1543 176.889 21.6117C176.363 21.0692 176.1 20.3834 176.1 19.5546C176.1 18.4393 176.53 17.4672 177.393 16.6383C178.27 15.7944 179.235 15.3724 180.288 15.3724H196.954C197.774 15.3724 198.439 15.6361 198.951 16.1636C199.477 16.6911 199.74 17.3617 199.74 18.1756C199.74 19.2909 199.316 20.278 198.468 21.137C197.619 21.9961 196.661 22.4256 195.595 22.4256H191.165Z" fill="white"/>
<path d="M47.4372 62.4873V59.997H49.7758V62.4873C52.1744 62.6197 54.0676 63.3659 55.4553 64.7259C56.843 66.0768 57.5369 67.7591 57.5369 69.7725C57.5369 71.7416 56.8644 73.4151 55.5195 74.7928C54.1746 76.1703 52.26 76.9297 49.7758 77.071V79.5745H47.4372V77.071C45.2099 76.9827 43.3553 76.2852 41.8734 74.9782C40.3913 73.6625 39.6504 71.9272 39.6504 69.7725C39.6504 67.609 40.3871 65.8783 41.8606 64.5801C43.3425 63.282 45.2013 62.5844 47.4372 62.4873ZM49.7758 64.6861V74.859C51.3862 74.7794 52.6541 74.2982 53.5792 73.4151C54.5044 72.5321 54.9671 71.3179 54.9671 69.7725C54.9671 68.2536 54.513 67.0527 53.605 66.1696C52.6969 65.2777 51.4206 64.7832 49.7758 64.6861ZM47.4372 64.6993C45.8867 64.77 44.6316 65.2424 43.6723 66.1166C42.7128 66.9909 42.2332 68.2094 42.2332 69.7725C42.2332 71.3179 42.7043 72.5321 43.6465 73.4151C44.5974 74.2982 45.8609 74.7751 47.4372 74.8458V64.6993ZM62.0007 60.156H64.2623V75.5345L74.285 60.156H76.7906V79.5745H74.529V64.2358L64.4935 79.5745H62.0007V60.156ZM86.9853 79.5745V62.4475H80.779V60.156H95.7102V62.4475H89.4781V79.5745H86.9853ZM99.673 79.5745V60.156H102.166V68.1301H111.957V60.156H114.45V79.5745H111.957V70.4216H102.166V79.5745H99.673ZM119.98 79.5745V60.156H133.601V62.4475H122.473V68.395H132.894V70.6732H122.473V77.2829H134.038V79.5745H119.98ZM152.238 72.7662L154.731 73.4151C154.208 75.5256 153.266 77.1372 151.904 78.2499C150.55 79.3537 148.893 79.9056 146.931 79.9056C144.901 79.9056 143.247 79.4817 141.971 78.6341C140.703 77.7774 139.735 76.5413 139.067 74.9252C138.407 73.3091 138.078 71.574 138.078 69.7196C138.078 67.6973 138.45 65.9356 139.195 64.4344C139.949 62.9244 141.016 61.7807 142.395 61.0036C143.783 60.2178 145.308 59.8248 146.97 59.8248C148.854 59.8248 150.439 60.3193 151.724 61.3083C153.009 62.2974 153.904 63.6882 154.409 65.4808L151.955 66.0768C151.518 64.664 150.884 63.6352 150.053 62.9906C149.222 62.3459 148.177 62.0236 146.918 62.0236C145.47 62.0236 144.258 62.3813 143.282 63.0966C142.314 63.8119 141.633 64.7744 141.239 65.9843C140.844 67.1851 140.647 68.4257 140.647 69.7063C140.647 71.3575 140.879 72.8014 141.341 74.0377C141.812 75.2652 142.541 76.1835 143.526 76.7928C144.511 77.4021 145.577 77.7068 146.725 77.7068C148.122 77.7068 149.304 77.2918 150.272 76.4617C151.24 75.6316 151.895 74.3998 152.238 72.7662Z" fill="white"/>
</svg>
