<svg width="25" height="32" viewBox="0 0 25 32" fill="none" xmlns="http://www.w3.org/2000/svg">
<path d="M12.5 4.33304C14.6935 4.33304 16.7971 5.17581 18.3481 6.67598C19.8991 8.17613 20.7704 10.2108 20.7704 12.3323C20.7704 15.6139 21.4521 18.0711 22.3361 19.8782C23.4655 22.1869 24.0302 23.3413 23.9988 23.605C23.9622 23.9128 23.9154 23.9975 23.683 24.1771C23.4837 24.3313 22.4926 24.3313 20.5103 24.3313H4.4896C2.50734 24.3313 1.51623 24.3313 1.31699 24.1771C1.08457 23.9975 1.03788 23.9128 1.00124 23.605C0.96983 23.3413 1.53453 22.1869 2.66394 19.8782C3.54791 18.0711 4.22959 15.6139 4.22959 12.3323C4.22959 10.2108 5.10094 8.17613 6.65193 6.67598C8.20293 5.17581 10.3065 4.33304 12.5 4.33304ZM12.5 4.33304V1M8.44749 29.3308C9.52909 30.3696 10.9499 31 12.5061 31C14.0622 31 15.483 30.3696 16.5647 29.3308" stroke="white" stroke-width="2" stroke-linecap="round" stroke-linejoin="round"/>
</svg>
