<svg width="137" height="158" viewBox="0 0 137 158" fill="none" xmlns="http://www.w3.org/2000/svg">
<path d="M136.949 89.2622C136.949 128.169 107.509 157.52 68.4831 157.52C27.5351 157.52 0.0169338 130.086 0.0169338 89.2622C-0.198764 75.4588 1.64722 61.7003 5.49423 48.4387C5.80853 47.3432 6.47177 46.3793 7.38383 45.6926C8.29589 45.0059 9.40726 44.6337 10.5502 44.632C11.6575 44.631 12.737 44.978 13.6353 45.6237C14.5335 46.2694 15.2047 47.1809 15.5535 48.2287C15.8168 48.8325 17.5285 52.5079 23.7168 52.5079C36.462 52.5079 36.8833 26.5174 36.8833 26.2549C36.8838 25.3612 37.1131 24.4825 37.5494 23.7018C37.9858 22.9212 38.6147 22.2645 39.3768 21.7939C40.1388 21.3234 41.0088 21.0545 41.9042 21.0128C42.7996 20.9711 43.6909 21.1579 44.4936 21.5556C47.8877 23.0852 51.5956 23.7958 55.3165 23.6296C61.7418 23.6296 66.0078 17.3551 68.4831 11.9207C69.5838 9.37482 70.4647 6.73998 71.1164 4.04484C71.3944 2.87012 72.0699 1.82677 73.0292 1.0904C73.9884 0.35403 75.1728 -0.0303798 76.3831 0.00187663C77.6416 -0.0153025 78.8646 0.417419 79.8307 1.22167C80.7969 2.02592 81.4421 3.14851 81.6497 4.38613C83.4403 15.5174 91.8143 47.2573 105.35 47.2573C116.199 47.2573 118.516 37.0186 118.516 35.8635C118.713 34.7081 119.291 33.6514 120.16 32.8616C121.028 32.0719 122.137 31.5945 123.309 31.5055C124.432 31.4312 125.549 31.7174 126.496 32.3222C127.444 32.9269 128.173 33.8183 128.575 34.8659C136.949 56.8134 136.949 81.2287 136.949 89.2622Z" fill="#9EE02F"/>
<path d="M136.949 89.2621C136.949 128.169 107.509 157.52 68.4829 157.52V11.9207C69.5836 9.37482 70.4645 6.73998 71.1162 4.04484C71.3942 2.87012 72.0697 1.82677 73.029 1.0904C73.9882 0.35403 75.1726 -0.0303798 76.3829 0.00187663C77.6414 -0.0153025 78.8644 0.417419 79.8306 1.22167C80.7967 2.02592 81.4419 3.14851 81.6495 4.38613C83.4401 15.5174 91.8141 47.2573 105.349 47.2573C116.199 47.2573 118.516 37.0186 118.516 35.8635C118.712 34.7081 119.291 33.6513 120.159 32.8616C121.028 32.0719 122.136 31.5945 123.309 31.5055C124.431 31.4312 125.548 31.7174 126.496 32.3222C127.444 32.9269 128.173 33.8183 128.575 34.8659C136.949 56.8134 136.949 81.2287 136.949 89.2621Z" fill="#88BC31"/>
<path d="M95.8957 77.2118L68.4829 104.541L45.8628 127.093C44.8552 127.953 43.5593 128.402 42.2338 128.351C40.9083 128.3 39.6509 127.752 38.713 126.817C37.775 125.882 37.2255 124.629 37.1743 123.307C37.1231 121.986 37.574 120.694 38.4368 119.689L68.4829 89.7345L88.4698 69.8084C89.4773 68.9483 90.7733 68.4988 92.0988 68.5498C93.4243 68.6009 94.6816 69.1487 95.6196 70.0838C96.5575 71.0189 97.107 72.2724 97.1582 73.5939C97.2094 74.9153 96.7585 76.2073 95.8957 77.2118Z" fill="#FFF200"/>
<path d="M48.733 94.5127C51.5975 94.5127 54.3977 93.6659 56.7794 92.0793C59.1612 90.4927 61.0175 88.2376 62.1137 85.5992C63.2099 82.9608 63.4968 80.0576 62.9379 77.2566C62.3791 74.4557 60.9997 71.8829 58.9742 69.8635C56.9487 67.8442 54.368 66.469 51.5585 65.9118C48.7491 65.3547 45.837 65.6407 43.1905 66.7335C40.544 67.8264 38.2821 69.6771 36.6906 72.0516C35.0992 74.4261 34.2498 77.2178 34.2498 80.0736C34.2567 83.9009 35.7849 87.5696 38.4995 90.2759C41.2141 92.9823 44.8939 94.5058 48.733 94.5127ZM48.733 76.1356C49.5142 76.1356 50.2779 76.3666 50.9275 76.7993C51.577 77.232 52.0833 77.847 52.3823 78.5666C52.6812 79.2861 52.7595 80.0779 52.6071 80.8418C52.4546 81.6057 52.0784 82.3074 51.526 82.8581C50.9736 83.4089 50.2698 83.7839 49.5036 83.9359C48.7374 84.0878 47.9432 84.0098 47.2214 83.7118C46.4996 83.4137 45.8827 82.909 45.4487 82.2614C45.0147 81.6138 44.783 80.8524 44.783 80.0736C44.783 79.0292 45.1992 78.0275 45.9399 77.289C46.6807 76.5505 47.6854 76.1356 48.733 76.1356Z" fill="#FFF200"/>
<path d="M85.5994 102.389C82.7349 102.389 79.9347 103.236 77.553 104.822C75.1712 106.409 73.3149 108.664 72.2187 111.302C71.1225 113.941 70.8357 116.844 71.3945 119.645C71.9533 122.446 73.3327 125.019 75.3583 127.038C77.3838 129.057 79.9644 130.432 82.7739 130.99C85.5834 131.547 88.4955 131.261 91.1419 130.168C93.7884 129.075 96.0504 127.224 97.6418 124.85C99.2332 122.475 100.083 119.684 100.083 116.828C100.076 113 98.5476 109.332 95.8329 106.625C93.1183 103.919 89.4385 102.396 85.5994 102.389ZM85.5994 120.766C84.8182 120.766 84.0545 120.535 83.405 120.102C82.7554 119.669 82.2491 119.054 81.9501 118.335C81.6512 117.615 81.573 116.823 81.7254 116.06C81.8778 115.296 82.254 114.594 82.8064 114.043C83.3588 113.493 84.0626 113.117 84.8288 112.966C85.5951 112.814 86.3893 112.892 87.111 113.19C87.8328 113.488 88.4497 113.992 88.8837 114.64C89.3178 115.288 89.5494 116.049 89.5494 116.828C89.5494 117.872 89.1333 118.874 88.3925 119.612C87.6517 120.351 86.647 120.766 85.5994 120.766Z" fill="#FFF200"/>
<path d="M95.8957 69.8088C94.9089 68.8309 93.5741 68.282 92.1827 68.282C90.7914 68.282 89.4565 68.8309 88.4698 69.8088L68.4829 89.7349V104.542L95.8957 77.2122C96.8766 76.2284 97.4272 74.8976 97.4272 73.5105C97.4272 72.1234 96.8766 70.7926 95.8957 69.8088Z" fill="#FFBE00"/>
<path d="M85.5994 102.389C82.7349 102.389 79.9347 103.236 77.553 104.822C75.1712 106.409 73.3149 108.664 72.2187 111.302C71.1225 113.941 70.8357 116.844 71.3945 119.645C71.9533 122.446 73.3327 125.019 75.3583 127.038C77.3838 129.057 79.9644 130.432 82.7739 130.99C85.5834 131.547 88.4955 131.261 91.1419 130.168C93.7884 129.075 96.0504 127.224 97.6418 124.85C99.2332 122.475 100.083 119.684 100.083 116.828C100.076 113 98.5476 109.332 95.8329 106.625C93.1183 103.919 89.4385 102.396 85.5994 102.389ZM85.5994 120.766C84.8182 120.766 84.0545 120.535 83.405 120.102C82.7554 119.669 82.2491 119.054 81.9501 118.335C81.6512 117.615 81.573 116.823 81.7254 116.06C81.8778 115.296 82.254 114.594 82.8064 114.043C83.3588 113.493 84.0626 113.117 84.8288 112.966C85.5951 112.814 86.3893 112.892 87.111 113.19C87.8328 113.488 88.4497 113.992 88.8837 114.64C89.3178 115.288 89.5494 116.049 89.5494 116.828C89.5494 117.872 89.1333 118.874 88.3925 119.612C87.6517 120.351 86.647 120.766 85.5994 120.766Z" fill="#FFBE00"/>
</svg>
