<svg width="219" height="158" viewBox="0 0 219 158" fill="none" xmlns="http://www.w3.org/2000/svg">
<path d="M121.405 116.023V118.023H123.405H164.25C167.295 118.023 169.417 119.094 170.786 120.563C172.184 122.061 172.915 124.098 172.915 126.185C172.915 128.273 172.184 130.31 170.786 131.808C169.417 133.276 167.295 134.348 164.25 134.348H112.141C110.126 134.277 108.266 133.592 106.925 132.283C105.605 130.994 104.598 128.913 104.618 125.664L104.618 125.656L104.618 125.649L104.548 82.9911L104.544 80.9944H102.548H95.5953H93.5953V82.9944V155.52H29.8096V82.9944V80.9944H27.8096H20.8572H18.8572V82.9944V146.511C18.8572 149.623 17.7552 151.839 16.2286 153.283C14.6756 154.751 12.5739 155.524 10.4322 155.52C6.20388 155.512 1.98129 152.521 2.00007 146.517V146.511L2.00007 81.3006L2.00007 81.2996C1.9961 73.9908 5.77546 66.4467 11.9754 60.6854C18.1597 54.9386 26.5965 51.1191 35.631 51.1191H90.381C106.892 51.1191 121.405 64.3574 121.405 80.4538V116.023ZM171.842 26.7442L173.617 26.5435V24.7569V19.5198V17.5198H171.617H167.747V11.6036H186.052V17.5189H181.791H179.791V19.5189V24.7933V26.5663L181.551 26.7789C186.053 27.3225 190.326 28.588 194.244 30.4526L195.83 31.2068L196.783 29.733L199.296 25.8484L204.494 29.0412L201.968 32.9446L200.992 34.4535L202.388 35.585C211.325 42.8265 217 53.7146 217 65.8544C217 87.5164 198.897 105.231 176.54 105.231C154.183 105.231 136.08 87.5164 136.08 65.8544C136.08 45.733 151.698 29.0217 171.842 26.7442ZM42.0805 21.9368C42.0805 10.9417 51.1105 2 62.5915 2C73.9951 2 83.099 10.943 83.1024 21.9307C83.0261 33.0095 73.9121 41.8736 62.5915 41.8736C51.1857 41.8736 42.0805 32.9272 42.0805 21.9368ZM210.833 65.8544C210.833 47.3497 195.402 32.3851 176.54 32.3851C157.678 32.3851 142.247 47.3488 142.247 65.8544C142.247 84.3599 157.678 99.3236 176.54 99.3236C195.402 99.3236 210.833 84.3591 210.833 65.8544ZM200.814 63.663H178.704V42.2015C190.45 43.1915 199.709 52.3026 200.814 63.663Z" fill="#88BC31" stroke="#587D18" stroke-width="4"/>
</svg>
